<?xml version="1.0" encoding="UTF-8" standalone="no"?> <svg xmlns="http://www.w3.org/2000/svg" viewBox="0 0 24 24"><title>shopping cart</title><g id="Layer_2" data-name="Layer 2"><path d="M21.29,6.81a2.2,2.2,0,0,0-1.65-.75H8.42a2.18,2.18,0,0,0-.62.1L7.23,2.83a1,1,0,0,0-1-.83H3A1,1,0,0,0,3,4H5.4l.86,5a1,1,0,0,0,.07.19L6.94,14a2.2,2.2,0,0,0,2.18,1.92h9.83A2.2,2.2,0,0,0,21.13,14l.7-5.48A2.2,2.2,0,0,0,21.29,6.81Z"/><path d="M17.84,22a2.52,2.52,0,1,1,2.52-2.52A2.52,2.52,0,0,1,17.84,22Zm0-3a.52.52,0,1,0,.52.52A.52.52,0,0,0,17.84,19Z"/><path d="M10.84,22a2.52,2.52,0,1,1,2.52-2.52A2.52,2.52,0,0,1,10.84,22Zm0-3a.52.52,0,1,0,.52.52A.52.52,0,0,0,10.84,19Z"/></g></svg>