<?xml version="1.0" encoding="UTF-8" standalone="no"?> <svg id="Layer_1" data-name="Layer 1" xmlns="http://www.w3.org/2000/svg" viewBox="0 0 32 32"><title>Gallery</title><path d="M7.94,10s-.13-.07-.15,0C5,14,1,19.32,1,19.32V27.5A3.5,3.5,0,0,0,4.5,31H19.73S12,17,7.94,10Z"/><circle cx="21.5" cy="9.5" r="1.5"/><path d="M27.5,1H4.5A3.5,3.5,0,0,0,1,4.5V15.91L6.17,8.77A2.09,2.09,0,0,1,9.69,9L22,31H27.5A3.5,3.5,0,0,0,31,27.5V4.5A3.5,3.5,0,0,0,27.5,1Zm-6,12A3.5,3.5,0,1,1,25,9.5,3.5,3.5,0,0,1,21.5,13Z"/></svg>