<?xml version="1.0" encoding="UTF-8" standalone="no"?> <svg id="Layer_1" data-name="Layer 1" xmlns="http://www.w3.org/2000/svg" viewBox="0 0 32 32"><title>home ui icon</title><path d="M18.29,21.08H13.71v3h1.52a1,1,0,1,1,0,2H13.71v5h4.58Z"/><rect x="13.71" y="12" width="4.58" height="1"/><path d="M30.65,13.18l-14-11.94a1,1,0,0,0-1.3,0l-14,11.94a1,1,0,0,0,1.3,1.52l2.35-2V30a1,1,0,0,0,1,1h5.71V20.08a1,1,0,0,1,1-1h6.58a1,1,0,0,1,1,1V31H26a1,1,0,0,0,1-1V12.69l2.35,2a1,1,0,1,0,1.3-1.52ZM20.29,14a1,1,0,0,1-1,1H12.71a1,1,0,0,1-1-1V11a1,1,0,0,1,1-1h6.58a1,1,0,0,1,1,1Z"/></svg>